<?xml version="1.0" encoding="UTF-8" standalone="no"?>
<!DOCTYPE svg PUBLIC "-//W3C//DTD SVG 1.1//EN"
 "http://www.w3.org/Graphics/SVG/1.1/DTD/svg11.dtd">
<!-- Generated by graphviz version 2.38.0 (20140413.2041)
 -->
<!-- Title: %3 Pages: 1 -->
<svg width="482pt" height="98pt"
 viewBox="0.00 0.00 482.06 98.00" xmlns="http://www.w3.org/2000/svg" xmlns:xlink="http://www.w3.org/1999/xlink">
<g id="graph0" class="graph" transform="scale(1 1) rotate(0) translate(4 94)">
<title>%3</title>
<polygon fill="white" stroke="none" points="-4,4 -4,-94 478.06,-94 478.06,4 -4,4"/>
<!-- Root -->
<g id="node1" class="node"><title>Root</title>
<polygon fill="none" stroke="black" points="54,-63 0,-63 0,-27 54,-27 54,-63"/>
<text text-anchor="middle" x="27" y="-42" font-family="Helvetica,sans-Serif" font-size="10.00">Root</text>
</g>
<!-- Document -->
<g id="node2" class="node"><title>Document</title>
<polygon fill="none" stroke="black" points="237.9,-63 90.0332,-63 90.0332,-27 237.9,-27 237.9,-63"/>
<text text-anchor="middle" x="163.967" y="-42" font-family="Helvetica,sans-Serif" font-size="10.00">Document(path=&#39;readme.md&#39;)</text>
</g>
<!-- Root&#45;&gt;Document -->
<g id="edge1" class="edge"><title>Root&#45;&gt;Document</title>
<path fill="none" stroke="black" d="M54.023,-45C61.6735,-45 70.4848,-45 79.7128,-45"/>
<polygon fill="black" stroke="black" points="79.8547,-48.5001 89.8546,-45 79.8546,-41.5001 79.8547,-48.5001"/>
</g>
<!-- h1 -->
<g id="node5" class="node"><title>h1</title>
<polygon fill="none" stroke="black" points="327.934,-90 273.934,-90 273.934,-54 327.934,-54 327.934,-90"/>
<text text-anchor="middle" x="300.934" y="-69" font-family="Helvetica,sans-Serif" font-size="10.00">h1</text>
</g>
<!-- Document&#45;&gt;h1 -->
<g id="edge2" class="edge"><title>Document&#45;&gt;h1</title>
<path fill="none" stroke="black" d="M237.98,-59.6063C246.877,-61.3861 255.644,-63.14 263.659,-64.7432"/>
<polygon fill="black" stroke="black" points="263.216,-68.2239 273.708,-66.7536 264.589,-61.3599 263.216,-68.2239"/>
</g>
<!-- p -->
<g id="node6" class="node"><title>p</title>
<polygon fill="none" stroke="black" points="327.934,-36 273.934,-36 273.934,-0 327.934,-0 327.934,-36"/>
<text text-anchor="middle" x="300.934" y="-15" font-family="Helvetica,sans-Serif" font-size="10.00">p</text>
</g>
<!-- Document&#45;&gt;p -->
<g id="edge4" class="edge"><title>Document&#45;&gt;p</title>
<path fill="none" stroke="black" d="M237.98,-30.3937C246.877,-28.6139 255.644,-26.86 263.659,-25.2568"/>
<polygon fill="black" stroke="black" points="264.589,-28.6401 273.708,-23.2464 263.216,-21.7761 264.589,-28.6401"/>
</g>
<!-- TitleText -->
<g id="node3" class="node"><title>TitleText</title>
<polygon fill="none" stroke="black" points="461.799,-90 376.194,-90 376.194,-54 461.799,-54 461.799,-90"/>
<text text-anchor="middle" x="418.997" y="-69" font-family="Helvetica,sans-Serif" font-size="10.00">Text(text=&#39;Title&#39;)</text>
</g>
<!-- BodyText -->
<g id="node4" class="node"><title>BodyText</title>
<polygon fill="none" stroke="black" points="474.123,-36 363.871,-36 363.871,-0 474.123,-0 474.123,-36"/>
<text text-anchor="middle" x="418.997" y="-15" font-family="Helvetica,sans-Serif" font-size="10.00">Text(text=&#39;some text&#39;)</text>
</g>
<!-- h1&#45;&gt;TitleText -->
<g id="edge3" class="edge"><title>h1&#45;&gt;TitleText</title>
<path fill="none" stroke="black" d="M327.98,-72C339.161,-72 352.644,-72 365.732,-72"/>
<polygon fill="black" stroke="black" points="366.093,-75.5001 376.093,-72 366.093,-68.5001 366.093,-75.5001"/>
</g>
<!-- p&#45;&gt;BodyText -->
<g id="edge5" class="edge"><title>p&#45;&gt;BodyText</title>
<path fill="none" stroke="black" d="M327.98,-18C335.653,-18 344.41,-18 353.38,-18"/>
<polygon fill="black" stroke="black" points="353.551,-21.5001 363.551,-18 353.551,-14.5001 353.551,-21.5001"/>
</g>
</g>
</svg>
