<?xml version="1.0" encoding="UTF-8" standalone="no"?>
<!DOCTYPE svg PUBLIC "-//W3C//DTD SVG 1.1//EN"
 "http://www.w3.org/Graphics/SVG/1.1/DTD/svg11.dtd">
<!-- Generated by graphviz version 2.38.0 (20140413.2041)
 -->
<!-- Title: %3 Pages: 1 -->
<svg width="152pt" height="152pt"
 viewBox="0.00 0.00 152.00 152.00" xmlns="http://www.w3.org/2000/svg" xmlns:xlink="http://www.w3.org/1999/xlink">
<g id="graph0" class="graph" transform="scale(1 1) rotate(0) translate(4 148)">
<title>%3</title>
<polygon fill="white" stroke="none" points="-4,4 -4,-148 148,-148 148,4 -4,4"/>
<!-- A -->
<g id="node1" class="node"><title>A</title>
<polygon fill="none" stroke="black" points="54,-90 0,-90 0,-54 54,-54 54,-90"/>
<text text-anchor="middle" x="27" y="-69" font-family="Helvetica,sans-Serif" font-size="10.00">A</text>
</g>
<!-- B -->
<g id="node2" class="node"><title>B</title>
<polygon fill="none" stroke="black" points="144,-144 90,-144 90,-108 144,-108 144,-144"/>
<text text-anchor="middle" x="117" y="-123" font-family="Helvetica,sans-Serif" font-size="10.00">B</text>
</g>
<!-- A&#45;&gt;B -->
<g id="edge1" class="edge"><title>A&#45;&gt;B</title>
<path fill="none" stroke="black" d="M54.4029,-88.2018C62.8323,-93.3743 72.2933,-99.18 81.2235,-104.66"/>
<polygon fill="black" stroke="black" points="79.5652,-107.749 89.919,-109.996 83.2263,-101.782 79.5652,-107.749"/>
</g>
<!-- D -->
<g id="node3" class="node"><title>D</title>
<polygon fill="none" stroke="black" points="144,-90 90,-90 90,-54 144,-54 144,-90"/>
<text text-anchor="middle" x="117" y="-69" font-family="Helvetica,sans-Serif" font-size="10.00">D</text>
</g>
<!-- A&#45;&gt;D -->
<g id="edge2" class="edge"><title>A&#45;&gt;D</title>
<path fill="none" stroke="black" d="M54.4029,-72C62.3932,-72 71.3106,-72 79.8241,-72"/>
<polygon fill="black" stroke="black" points="79.919,-75.5001 89.919,-72 79.919,-68.5001 79.919,-75.5001"/>
</g>
<!-- C -->
<g id="node4" class="node"><title>C</title>
<polygon fill="none" stroke="black" points="144,-36 90,-36 90,-0 144,-0 144,-36"/>
<text text-anchor="middle" x="117" y="-15" font-family="Helvetica,sans-Serif" font-size="10.00">C</text>
</g>
<!-- A&#45;&gt;C -->
<g id="edge3" class="edge"><title>A&#45;&gt;C</title>
<path fill="none" stroke="black" d="M54.4029,-55.7982C62.8323,-50.6257 72.2933,-44.82 81.2235,-39.3401"/>
<polygon fill="black" stroke="black" points="83.2263,-42.2176 89.919,-34.0043 79.5652,-36.2513 83.2263,-42.2176"/>
</g>
</g>
</svg>
