<?xml version="1.0" encoding="UTF-8" standalone="no"?>
<!DOCTYPE svg PUBLIC "-//W3C//DTD SVG 1.1//EN"
 "http://www.w3.org/Graphics/SVG/1.1/DTD/svg11.dtd">
<!-- Generated by graphviz version 2.38.0 (20140413.2041)
 -->
<!-- Title: %3 Pages: 1 -->
<svg width="222pt" height="260pt"
 viewBox="0.00 0.00 221.71 260.00" xmlns="http://www.w3.org/2000/svg" xmlns:xlink="http://www.w3.org/1999/xlink">
<g id="graph0" class="graph" transform="scale(1 1) rotate(0) translate(4 256)">
<title>%3</title>
<polygon fill="white" stroke="none" points="-4,4 -4,-256 217.714,-256 217.714,4 -4,4"/>
<!-- Root -->
<g id="node1" class="node"><title>Root</title>
<polygon fill="none" stroke="black" points="127.651,-252 73.6509,-252 73.6509,-216 127.651,-216 127.651,-252"/>
<text text-anchor="middle" x="100.651" y="-231" font-family="Helvetica,sans-Serif" font-size="10.00">Root</text>
</g>
<!-- Document -->
<g id="node2" class="node"><title>Document</title>
<polygon fill="none" stroke="black" points="174.584,-180 26.7173,-180 26.7173,-144 174.584,-144 174.584,-180"/>
<text text-anchor="middle" x="100.651" y="-159" font-family="Helvetica,sans-Serif" font-size="10.00">Document(path=&#39;readme.md&#39;)</text>
</g>
<!-- Root&#45;&gt;Document -->
<g id="edge1" class="edge"><title>Root&#45;&gt;Document</title>
<path fill="none" stroke="black" d="M100.651,-215.697C100.651,-207.983 100.651,-198.712 100.651,-190.112"/>
<polygon fill="black" stroke="black" points="104.151,-190.104 100.651,-180.104 97.151,-190.104 104.151,-190.104"/>
</g>
<!-- h1 -->
<g id="node5" class="node"><title>h1</title>
<polygon fill="none" stroke="black" points="80.6509,-108 26.6509,-108 26.6509,-72 80.6509,-72 80.6509,-108"/>
<text text-anchor="middle" x="53.6509" y="-87" font-family="Helvetica,sans-Serif" font-size="10.00">h1</text>
</g>
<!-- Document&#45;&gt;h1 -->
<g id="edge2" class="edge"><title>Document&#45;&gt;h1</title>
<path fill="none" stroke="black" d="M89.0329,-143.697C83.5121,-135.474 76.8039,-125.483 70.7191,-116.421"/>
<polygon fill="black" stroke="black" points="73.6154,-114.456 65.1352,-108.104 67.8038,-118.358 73.6154,-114.456"/>
</g>
<!-- p -->
<g id="node6" class="node"><title>p</title>
<polygon fill="none" stroke="black" points="174.651,-108 120.651,-108 120.651,-72 174.651,-72 174.651,-108"/>
<text text-anchor="middle" x="147.651" y="-87" font-family="Helvetica,sans-Serif" font-size="10.00">p</text>
</g>
<!-- Document&#45;&gt;p -->
<g id="edge4" class="edge"><title>Document&#45;&gt;p</title>
<path fill="none" stroke="black" d="M112.269,-143.697C117.79,-135.474 124.498,-125.483 130.583,-116.421"/>
<polygon fill="black" stroke="black" points="133.498,-118.358 136.167,-108.104 127.686,-114.456 133.498,-118.358"/>
</g>
<!-- TitleText -->
<g id="node3" class="node"><title>TitleText</title>
<polygon fill="none" stroke="black" points="85.4532,-36 -0.151415,-36 -0.151415,-0 85.4532,-0 85.4532,-36"/>
<text text-anchor="middle" x="42.6509" y="-15" font-family="Helvetica,sans-Serif" font-size="10.00">Text(text=&#39;Title&#39;)</text>
</g>
<!-- BodyText -->
<g id="node4" class="node"><title>BodyText</title>
<polygon fill="none" stroke="black" points="213.777,-36 103.525,-36 103.525,-0 213.777,-0 213.777,-36"/>
<text text-anchor="middle" x="158.651" y="-15" font-family="Helvetica,sans-Serif" font-size="10.00">Text(text=&#39;some text&#39;)</text>
</g>
<!-- h1&#45;&gt;TitleText -->
<g id="edge3" class="edge"><title>h1&#45;&gt;TitleText</title>
<path fill="none" stroke="black" d="M50.9318,-71.6966C49.7196,-63.9827 48.2628,-54.7125 46.9114,-46.1124"/>
<polygon fill="black" stroke="black" points="50.3487,-45.4397 45.3387,-36.1043 43.4336,-46.5265 50.3487,-45.4397"/>
</g>
<!-- p&#45;&gt;BodyText -->
<g id="edge5" class="edge"><title>p&#45;&gt;BodyText</title>
<path fill="none" stroke="black" d="M150.37,-71.6966C151.582,-63.9827 153.039,-54.7125 154.39,-46.1124"/>
<polygon fill="black" stroke="black" points="157.868,-46.5265 155.963,-36.1043 150.953,-45.4397 157.868,-46.5265"/>
</g>
</g>
</svg>
