<?xml version="1.0" encoding="UTF-8" standalone="no"?>
<!DOCTYPE svg PUBLIC "-//W3C//DTD SVG 1.1//EN"
 "http://www.w3.org/Graphics/SVG/1.1/DTD/svg11.dtd">
<!-- Generated by graphviz version 2.38.0 (20140413.2041)
 -->
<!-- Title: %3 Pages: 1 -->
<svg width="242pt" height="116pt"
 viewBox="0.00 0.00 242.00 116.00" xmlns="http://www.w3.org/2000/svg" xmlns:xlink="http://www.w3.org/1999/xlink">
<g id="graph0" class="graph" transform="scale(1 1) rotate(0) translate(4 112)">
<title>%3</title>
<polygon fill="white" stroke="none" points="-4,4 -4,-112 238,-112 238,4 -4,4"/>
<text text-anchor="middle" x="117" y="-6" font-family="Helvetica,sans-Serif" font-size="10.00">A</text>
<!-- A -->
<g id="node1" class="node"><title>A</title>
<ellipse fill="none" stroke="black" cx="27" cy="-63" rx="27" ry="18"/>
<text text-anchor="middle" x="27" y="-58.8" font-family="Times,serif" font-size="14.00">A</text>
</g>
<!-- C -->
<g id="node2" class="node"><title>C</title>
<ellipse fill="none" stroke="black" cx="117" cy="-63" rx="27" ry="18"/>
<text text-anchor="middle" x="117" y="-58.8" font-family="Times,serif" font-size="14.00">C</text>
</g>
<!-- A&#45;&gt;C -->
<g id="edge1" class="edge"><title>A&#45;&gt;C</title>
<path fill="none" stroke="black" d="M54.4029,-63C62.3932,-63 71.3106,-63 79.8241,-63"/>
<polygon fill="black" stroke="black" points="79.919,-66.5001 89.919,-63 79.919,-59.5001 79.919,-66.5001"/>
</g>
<!-- D -->
<g id="node3" class="node"><title>D</title>
<ellipse fill="none" stroke="black" cx="207" cy="-90" rx="27" ry="18"/>
<text text-anchor="middle" x="207" y="-85.8" font-family="Times,serif" font-size="14.00">D</text>
</g>
<!-- C&#45;&gt;D -->
<g id="edge2" class="edge"><title>C&#45;&gt;D</title>
<path fill="none" stroke="black" d="M142.046,-70.3779C151.435,-73.2586 162.362,-76.6112 172.5,-79.7215"/>
<polygon fill="black" stroke="black" points="171.701,-83.1373 182.287,-82.7245 173.754,-76.4452 171.701,-83.1373"/>
</g>
<!-- E -->
<g id="node4" class="node"><title>E</title>
<ellipse fill="none" stroke="black" cx="207" cy="-36" rx="27" ry="18"/>
<text text-anchor="middle" x="207" y="-31.8" font-family="Times,serif" font-size="14.00">E</text>
</g>
<!-- C&#45;&gt;E -->
<g id="edge3" class="edge"><title>C&#45;&gt;E</title>
<path fill="none" stroke="black" d="M142.046,-55.6221C151.435,-52.7414 162.362,-49.3888 172.5,-46.2785"/>
<polygon fill="black" stroke="black" points="173.754,-49.5548 182.287,-43.2755 171.701,-42.8627 173.754,-49.5548"/>
</g>
</g>
</svg>
