<?xml version="1.0" encoding="UTF-8" standalone="no"?>
<!DOCTYPE svg PUBLIC "-//W3C//DTD SVG 1.1//EN"
 "http://www.w3.org/Graphics/SVG/1.1/DTD/svg11.dtd">
<!-- Generated by graphviz version 2.38.0 (20140413.2041)
 -->
<!-- Title: %3 Pages: 1 -->
<svg width="633pt" height="206pt"
 viewBox="0.00 0.00 633.24 206.00" xmlns="http://www.w3.org/2000/svg" xmlns:xlink="http://www.w3.org/1999/xlink">
<g id="graph0" class="graph" transform="scale(1 1) rotate(0) translate(4 202)">
<title>%3</title>
<polygon fill="white" stroke="none" points="-4,4 -4,-202 629.242,-202 629.242,4 -4,4"/>
<!-- Root -->
<g id="node1" class="node"><title>Root</title>
<polygon fill="none" stroke="black" points="95.4102,-63 41.4102,-63 41.4102,-27 95.4102,-27 95.4102,-63"/>
<text text-anchor="middle" x="68.4102" y="-42" font-family="Helvetica,sans-Serif" font-size="10.00">Root</text>
</g>
<!-- Document -->
<g id="node2" class="node"><title>Document</title>
<polygon fill="none" stroke="black" points="320.721,-63 172.854,-63 172.854,-27 320.721,-27 320.721,-63"/>
<text text-anchor="middle" x="246.787" y="-42" font-family="Helvetica,sans-Serif" font-size="10.00">Document(path=&#39;readme.md&#39;)</text>
</g>
<!-- Root&#45;&gt;Document -->
<g id="edge1" class="edge"><title>Root&#45;&gt;Document</title>
<path fill="none" stroke="black" d="M95.4352,-45C113.374,-45 138.296,-45 162.695,-45"/>
<polygon fill="black" stroke="black" points="162.731,-48.5001 172.731,-45 162.731,-41.5001 162.731,-48.5001"/>
</g>
<!-- h1 -->
<g id="node5" class="node"><title>h1</title>
<polygon fill="none" stroke="black" points="444.935,-90 390.935,-90 390.935,-54 444.935,-54 444.935,-90"/>
<text text-anchor="middle" x="417.935" y="-69" font-family="Helvetica,sans-Serif" font-size="10.00">h1</text>
</g>
<!-- Document&#45;&gt;h1 -->
<g id="edge2" class="edge"><title>Document&#45;&gt;h1</title>
<path fill="none" stroke="black" d="M320.994,-56.6856C341.549,-59.9667 363.017,-63.3934 380.42,-66.1714"/>
<polygon fill="black" stroke="black" points="380.26,-69.6901 390.687,-67.8102 381.364,-62.7776 380.26,-69.6901"/>
</g>
<!-- p -->
<g id="node6" class="node"><title>p</title>
<polygon fill="none" stroke="black" points="444.935,-36 390.935,-36 390.935,-0 444.935,-0 444.935,-36"/>
<text text-anchor="middle" x="417.935" y="-15" font-family="Helvetica,sans-Serif" font-size="10.00">p</text>
</g>
<!-- Document&#45;&gt;p -->
<g id="edge4" class="edge"><title>Document&#45;&gt;p</title>
<path fill="none" stroke="black" d="M320.994,-33.3144C341.549,-30.0333 363.017,-26.6066 380.42,-23.8286"/>
<polygon fill="black" stroke="black" points="381.364,-27.2224 390.687,-22.1898 380.26,-20.3099 381.364,-27.2224"/>
</g>
<!-- TitleText -->
<g id="node3" class="node"><title>TitleText</title>
<polygon fill="none" stroke="black" points="612.981,-90 527.377,-90 527.377,-54 612.981,-54 612.981,-90"/>
<text text-anchor="middle" x="570.179" y="-69" font-family="Helvetica,sans-Serif" font-size="10.00">Text(text=&#39;Title&#39;)</text>
</g>
<!-- BodyText -->
<g id="node4" class="node"><title>BodyText</title>
<polygon fill="none" stroke="black" points="625.305,-36 515.053,-36 515.053,-0 625.305,-0 625.305,-36"/>
<text text-anchor="middle" x="570.179" y="-15" font-family="Helvetica,sans-Serif" font-size="10.00">Text(text=&#39;some text&#39;)</text>
</g>
<!-- h1&#45;&gt;TitleText -->
<g id="edge3" class="edge"><title>h1&#45;&gt;TitleText</title>
<path fill="none" stroke="black" d="M445.106,-72C464.968,-72 492.917,-72 517.262,-72"/>
<polygon fill="black" stroke="black" points="517.44,-75.5001 527.44,-72 517.44,-68.5001 517.44,-75.5001"/>
</g>
<!-- p&#45;&gt;BodyText -->
<g id="edge5" class="edge"><title>p&#45;&gt;BodyText</title>
<path fill="none" stroke="black" d="M445.106,-18C461.651,-18 483.808,-18 504.818,-18"/>
<polygon fill="black" stroke="black" points="505.011,-21.5001 515.011,-18 505.011,-14.5001 505.011,-21.5001"/>
</g>
<!-- Document2 -->
<g id="node7" class="node"><title>Document2</title>
<polygon fill="none" stroke="black" points="136.731,-171 0.0897259,-171 0.0897259,-135 136.731,-135 136.731,-171"/>
<text text-anchor="middle" x="68.4102" y="-150" font-family="Helvetica,sans-Serif" font-size="10.00">Document(path=&#39;part2.md&#39;)</text>
</g>
<!-- h1b -->
<g id="node8" class="node"><title>h1b</title>
<polygon fill="none" stroke="black" points="273.787,-198 219.787,-198 219.787,-162 273.787,-162 273.787,-198"/>
<text text-anchor="middle" x="246.787" y="-177" font-family="Helvetica,sans-Serif" font-size="10.00">h1</text>
</g>
<!-- Document2&#45;&gt;h1b -->
<g id="edge6" class="edge"><title>Document2&#45;&gt;h1b</title>
<path fill="none" stroke="black" d="M136.846,-163.323C161.471,-167.093 188.385,-171.213 209.301,-174.415"/>
<polygon fill="black" stroke="black" points="208.934,-177.899 219.349,-175.953 209.994,-170.98 208.934,-177.899"/>
</g>
<!-- p2 -->
<g id="node10" class="node"><title>p2</title>
<polygon fill="none" stroke="black" points="273.787,-144 219.787,-144 219.787,-108 273.787,-108 273.787,-144"/>
<text text-anchor="middle" x="246.787" y="-123" font-family="Helvetica,sans-Serif" font-size="10.00">p</text>
</g>
<!-- Document2&#45;&gt;p2 -->
<g id="edge8" class="edge"><title>Document2&#45;&gt;p2</title>
<path fill="none" stroke="black" d="M136.846,-142.677C161.471,-138.907 188.385,-134.787 209.301,-131.585"/>
<polygon fill="black" stroke="black" points="209.994,-135.02 219.349,-130.047 208.934,-128.101 209.994,-135.02"/>
</g>
<!-- TitleText2 -->
<g id="node9" class="node"><title>TitleText2</title>
<polygon fill="none" stroke="black" points="464.892,-198 370.978,-198 370.978,-162 464.892,-162 464.892,-198"/>
<text text-anchor="middle" x="417.935" y="-177" font-family="Helvetica,sans-Serif" font-size="10.00">Text(text=&#39;Part 2&#39;)</text>
</g>
<!-- h1b&#45;&gt;TitleText2 -->
<g id="edge7" class="edge"><title>h1b&#45;&gt;TitleText2</title>
<path fill="none" stroke="black" d="M273.846,-180C296.974,-180 331.554,-180 360.925,-180"/>
<polygon fill="black" stroke="black" points="361.07,-183.5 371.07,-180 361.07,-176.5 361.07,-183.5"/>
</g>
<!-- BodyText2 -->
<g id="node11" class="node"><title>BodyText2</title>
<polygon fill="none" stroke="black" points="479.298,-144 356.572,-144 356.572,-108 479.298,-108 479.298,-144"/>
<text text-anchor="middle" x="417.935" y="-123" font-family="Helvetica,sans-Serif" font-size="10.00">Text(text=&#39;text of part 2&#39;)</text>
</g>
<!-- p2&#45;&gt;BodyText2 -->
<g id="edge9" class="edge"><title>p2&#45;&gt;BodyText2</title>
<path fill="none" stroke="black" d="M273.846,-126C293.235,-126 320.672,-126 346.342,-126"/>
<polygon fill="black" stroke="black" points="346.448,-129.5 356.448,-126 346.448,-122.5 346.448,-129.5"/>
</g>
</g>
</svg>
