<?xml version="1.0" encoding="UTF-8" standalone="no"?>
<!DOCTYPE svg PUBLIC "-//W3C//DTD SVG 1.1//EN"
 "http://www.w3.org/Graphics/SVG/1.1/DTD/svg11.dtd">
<!-- Generated by graphviz version 2.38.0 (20140413.2041)
 -->
<!-- Title: %3 Pages: 1 -->
<svg width="274pt" height="130pt"
 viewBox="0.00 0.00 274.00 130.00" xmlns="http://www.w3.org/2000/svg" xmlns:xlink="http://www.w3.org/1999/xlink">
<g id="graph0" class="graph" transform="scale(1 1) rotate(0) translate(4 126)">
<title>%3</title>
<polygon fill="white" stroke="none" points="-4,4 -4,-126 270,-126 270,4 -4,4"/>
<g id="clust1" class="cluster"><title>cluster0</title>
<polygon fill="none" stroke="black" points="8,-8 8,-114 258,-114 258,-8 8,-8"/>
</g>
<!-- A -->
<g id="node1" class="node"><title>A</title>
<ellipse fill="none" stroke="black" cx="43" cy="-61" rx="27" ry="18"/>
<text text-anchor="middle" x="43" y="-56.8" font-family="Times,serif" font-size="14.00">A</text>
</g>
<!-- C -->
<g id="node2" class="node"><title>C</title>
<ellipse fill="none" stroke="black" cx="133" cy="-61" rx="27" ry="18"/>
<text text-anchor="middle" x="133" y="-56.8" font-family="Times,serif" font-size="14.00">C</text>
</g>
<!-- A&#45;&gt;C -->
<g id="edge1" class="edge"><title>A&#45;&gt;C</title>
<path fill="none" stroke="black" d="M70.4029,-61C78.3932,-61 87.3106,-61 95.8241,-61"/>
<polygon fill="black" stroke="black" points="95.919,-64.5001 105.919,-61 95.919,-57.5001 95.919,-64.5001"/>
</g>
<!-- D -->
<g id="node3" class="node"><title>D</title>
<ellipse fill="none" stroke="black" cx="223" cy="-34" rx="27" ry="18"/>
<text text-anchor="middle" x="223" y="-29.8" font-family="Times,serif" font-size="14.00">D</text>
</g>
<!-- C&#45;&gt;D -->
<g id="edge2" class="edge"><title>C&#45;&gt;D</title>
<path fill="none" stroke="black" d="M158.046,-53.6221C167.435,-50.7414 178.362,-47.3888 188.5,-44.2785"/>
<polygon fill="black" stroke="black" points="189.754,-47.5548 198.287,-41.2755 187.701,-40.8627 189.754,-47.5548"/>
</g>
<!-- E -->
<g id="node4" class="node"><title>E</title>
<ellipse fill="none" stroke="black" cx="223" cy="-88" rx="27" ry="18"/>
<text text-anchor="middle" x="223" y="-83.8" font-family="Times,serif" font-size="14.00">E</text>
</g>
<!-- C&#45;&gt;E -->
<g id="edge3" class="edge"><title>C&#45;&gt;E</title>
<path fill="none" stroke="black" d="M158.046,-68.3779C167.435,-71.2586 178.362,-74.6112 188.5,-77.7215"/>
<polygon fill="black" stroke="black" points="187.701,-81.1373 198.287,-80.7245 189.754,-74.4452 187.701,-81.1373"/>
</g>
</g>
</svg>
