<?xml version="1.0" encoding="UTF-8" standalone="no"?>
<!DOCTYPE svg PUBLIC "-//W3C//DTD SVG 1.1//EN"
 "http://www.w3.org/Graphics/SVG/1.1/DTD/svg11.dtd">
<!-- Generated by graphviz version 2.38.0 (20140413.2041)
 -->
<!-- Title: %3 Pages: 1 -->
<svg width="242pt" height="152pt"
 viewBox="0.00 0.00 242.00 152.00" xmlns="http://www.w3.org/2000/svg" xmlns:xlink="http://www.w3.org/1999/xlink">
<g id="graph0" class="graph" transform="scale(1 1) rotate(0) translate(4 148)">
<title>%3</title>
<polygon fill="white" stroke="none" points="-4,4 -4,-148 238,-148 238,4 -4,4"/>
<!-- A -->
<g id="node1" class="node"><title>A</title>
<polygon fill="none" stroke="black" points="54,-63 0,-63 0,-27 54,-27 54,-63"/>
<text text-anchor="middle" x="27" y="-42" font-family="Helvetica,sans-Serif" font-size="10.00">A</text>
</g>
<!-- B -->
<g id="node2" class="node"><title>B</title>
<polygon fill="none" stroke="black" points="144,-90 90,-90 90,-54 144,-54 144,-90"/>
<text text-anchor="middle" x="117" y="-69" font-family="Helvetica,sans-Serif" font-size="10.00">B</text>
</g>
<!-- A&#45;&gt;B -->
<g id="edge1" class="edge"><title>A&#45;&gt;B</title>
<path fill="none" stroke="black" d="M54.4029,-53.1009C62.481,-55.5794 71.5067,-58.3486 80.1046,-60.9866"/>
<polygon fill="black" stroke="black" points="79.3322,-64.4106 89.919,-63.9979 81.3855,-57.7185 79.3322,-64.4106"/>
</g>
<!-- F -->
<g id="node6" class="node"><title>F</title>
<polygon fill="none" stroke="black" points="144,-36 90,-36 90,-0 144,-0 144,-36"/>
<text text-anchor="middle" x="117" y="-15" font-family="Helvetica,sans-Serif" font-size="10.00">F</text>
</g>
<!-- A&#45;&gt;F -->
<g id="edge5" class="edge"><title>A&#45;&gt;F</title>
<path fill="none" stroke="black" d="M54.4029,-36.8991C62.481,-34.4206 71.5067,-31.6514 80.1046,-29.0134"/>
<polygon fill="black" stroke="black" points="81.3855,-32.2815 89.919,-26.0021 79.3322,-25.5894 81.3855,-32.2815"/>
</g>
<!-- C -->
<g id="node3" class="node"><title>C</title>
<polygon fill="none" stroke="black" points="234,-144 180,-144 180,-108 234,-108 234,-144"/>
<text text-anchor="middle" x="207" y="-123" font-family="Helvetica,sans-Serif" font-size="10.00">C</text>
</g>
<!-- B&#45;&gt;C -->
<g id="edge2" class="edge"><title>B&#45;&gt;C</title>
<path fill="none" stroke="black" d="M144.403,-88.2018C152.832,-93.3743 162.293,-99.18 171.224,-104.66"/>
<polygon fill="black" stroke="black" points="169.565,-107.749 179.919,-109.996 173.226,-101.782 169.565,-107.749"/>
</g>
<!-- D -->
<g id="node4" class="node"><title>D</title>
<polygon fill="none" stroke="black" points="234,-90 180,-90 180,-54 234,-54 234,-90"/>
<text text-anchor="middle" x="207" y="-69" font-family="Helvetica,sans-Serif" font-size="10.00">D</text>
</g>
<!-- B&#45;&gt;D -->
<g id="edge3" class="edge"><title>B&#45;&gt;D</title>
<path fill="none" stroke="black" d="M144.403,-72C152.393,-72 161.311,-72 169.824,-72"/>
<polygon fill="black" stroke="black" points="169.919,-75.5001 179.919,-72 169.919,-68.5001 169.919,-75.5001"/>
</g>
<!-- E -->
<g id="node5" class="node"><title>E</title>
<polygon fill="none" stroke="black" points="234,-36 180,-36 180,-0 234,-0 234,-36"/>
<text text-anchor="middle" x="207" y="-15" font-family="Helvetica,sans-Serif" font-size="10.00">E</text>
</g>
<!-- B&#45;&gt;E -->
<g id="edge4" class="edge"><title>B&#45;&gt;E</title>
<path fill="none" stroke="black" d="M144.403,-55.7982C152.832,-50.6257 162.293,-44.82 171.224,-39.3401"/>
<polygon fill="black" stroke="black" points="173.226,-42.2176 179.919,-34.0043 169.565,-36.2513 173.226,-42.2176"/>
</g>
</g>
</svg>
