<?xml version="1.0" encoding="UTF-8" standalone="no"?>
<!DOCTYPE svg PUBLIC "-//W3C//DTD SVG 1.1//EN"
 "http://www.w3.org/Graphics/SVG/1.1/DTD/svg11.dtd">
<!-- Generated by graphviz version 2.38.0 (20140413.2041)
 -->
<!-- Title: %3 Pages: 1 -->
<svg width="242pt" height="206pt"
 viewBox="0.00 0.00 242.00 206.00" xmlns="http://www.w3.org/2000/svg" xmlns:xlink="http://www.w3.org/1999/xlink">
<g id="graph0" class="graph" transform="scale(1 1) rotate(0) translate(4 202)">
<title>%3</title>
<polygon fill="white" stroke="none" points="-4,4 -4,-202 238,-202 238,4 -4,4"/>
<!-- A -->
<g id="node1" class="node"><title>A</title>
<polygon fill="none" stroke="black" points="54,-96 0,-96 0,-60 54,-60 54,-96"/>
<text text-anchor="middle" x="27" y="-75" font-family="Helvetica,sans-Serif" font-size="10.00">A</text>
</g>
<!-- B -->
<g id="node2" class="node"><title>B</title>
<polygon fill="none" stroke="black" points="144,-130 90,-130 90,-94 144,-94 144,-130"/>
<text text-anchor="middle" x="117" y="-109" font-family="Helvetica,sans-Serif" font-size="10.00">B</text>
</g>
<!-- A&#45;&gt;B -->
<g id="edge1" class="edge"><title>A&#45;&gt;B</title>
<path fill="none" stroke="black" d="M54.4029,-88.2011C62.5689,-91.3561 71.703,-94.8852 80.3848,-98.2396"/>
<polygon fill="black" stroke="black" points="79.3296,-101.584 89.919,-101.923 81.8524,-95.0544 79.3296,-101.584"/>
</g>
<!-- F -->
<g id="node6" class="node"><title>F</title>
<polygon fill="none" stroke="black" points="144,-63 90,-63 90,-27 144,-27 144,-63"/>
<text text-anchor="middle" x="117" y="-42" font-family="Helvetica,sans-Serif" font-size="10.00">F</text>
</g>
<!-- A&#45;&gt;F -->
<g id="edge5" class="edge"><title>A&#45;&gt;F</title>
<path fill="none" stroke="black" d="M54.4029,-68.0989C62.5689,-65.0367 71.703,-61.6114 80.3848,-58.3557"/>
<polygon fill="black" stroke="black" points="81.7846,-61.5688 89.919,-54.7804 79.3267,-55.0145 81.7846,-61.5688"/>
</g>
<!-- C -->
<g id="node3" class="node"><title>C</title>
<polygon fill="none" stroke="black" points="234,-198 180,-198 180,-162 234,-162 234,-198"/>
<text text-anchor="middle" x="207" y="-177" font-family="Helvetica,sans-Serif" font-size="10.00">C</text>
</g>
<!-- B&#45;&gt;C -->
<g id="edge2" class="edge"><title>B&#45;&gt;C</title>
<path fill="none" stroke="black" d="M141.582,-130.223C151.725,-138.06 163.727,-147.335 174.607,-155.741"/>
<polygon fill="black" stroke="black" points="172.605,-158.618 182.658,-161.963 176.885,-153.079 172.605,-158.618"/>
</g>
<!-- D -->
<g id="node4" class="node"><title>D</title>
<polygon fill="none" stroke="black" points="234,-144 180,-144 180,-108 234,-108 234,-144"/>
<text text-anchor="middle" x="207" y="-123" font-family="Helvetica,sans-Serif" font-size="10.00">D</text>
</g>
<!-- B&#45;&gt;D -->
<g id="edge3" class="edge"><title>B&#45;&gt;D</title>
<path fill="none" stroke="black" d="M144.403,-116.2C152.393,-117.472 161.311,-118.89 169.824,-120.245"/>
<polygon fill="black" stroke="black" points="169.493,-123.736 179.919,-121.851 170.593,-116.823 169.493,-123.736"/>
</g>
<!-- E -->
<g id="node5" class="node"><title>E</title>
<polygon fill="none" stroke="black" points="234,-90 180,-90 180,-54 234,-54 234,-90"/>
<text text-anchor="middle" x="207" y="-69" font-family="Helvetica,sans-Serif" font-size="10.00">E</text>
</g>
<!-- B&#45;&gt;E -->
<g id="edge4" class="edge"><title>B&#45;&gt;E</title>
<path fill="none" stroke="black" d="M144.403,-99.9987C152.657,-96.247 161.9,-92.0457 170.665,-88.0615"/>
<polygon fill="black" stroke="black" points="172.264,-91.1794 179.919,-83.855 169.367,-84.8068 172.264,-91.1794"/>
</g>
<!-- G -->
<g id="node7" class="node"><title>G</title>
<polygon fill="none" stroke="black" points="234,-36 180,-36 180,-0 234,-0 234,-36"/>
<text text-anchor="middle" x="207" y="-15" font-family="Helvetica,sans-Serif" font-size="10.00">G</text>
</g>
<!-- F&#45;&gt;G -->
<g id="edge6" class="edge"><title>F&#45;&gt;G</title>
<path fill="none" stroke="black" d="M144.403,-36.8991C152.481,-34.4206 161.507,-31.6514 170.105,-29.0134"/>
<polygon fill="black" stroke="black" points="171.386,-32.2815 179.919,-26.0021 169.332,-25.5894 171.386,-32.2815"/>
</g>
</g>
</svg>
