<?xml version="1.0" encoding="UTF-8" standalone="no"?>
<!DOCTYPE svg PUBLIC "-//W3C//DTD SVG 1.1//EN"
 "http://www.w3.org/Graphics/SVG/1.1/DTD/svg11.dtd">
<!-- Generated by graphviz version 2.38.0 (20140413.2041)
 -->
<!-- Title: %3 Pages: 1 -->
<svg width="494pt" height="206pt"
 viewBox="0.00 0.00 494.30 206.00" xmlns="http://www.w3.org/2000/svg" xmlns:xlink="http://www.w3.org/1999/xlink">
<g id="graph0" class="graph" transform="scale(1 1) rotate(0) translate(4 202)">
<title>%3</title>
<polygon fill="white" stroke="none" points="-4,4 -4,-202 490.296,-202 490.296,4 -4,4"/>
<!-- Root -->
<g id="node1" class="node"><title>Root</title>
<polygon fill="none" stroke="black" points="54,-117 0,-117 0,-81 54,-81 54,-117"/>
<text text-anchor="middle" x="27" y="-96" font-family="Helvetica,sans-Serif" font-size="10.00">Root</text>
</g>
<!-- Document -->
<g id="node2" class="node"><title>Document</title>
<polygon fill="none" stroke="black" points="237.9,-144 90.0332,-144 90.0332,-108 237.9,-108 237.9,-144"/>
<text text-anchor="middle" x="163.967" y="-123" font-family="Helvetica,sans-Serif" font-size="10.00">Document(path=&#39;readme.md&#39;)</text>
</g>
<!-- Root&#45;&gt;Document -->
<g id="edge1" class="edge"><title>Root&#45;&gt;Document</title>
<path fill="none" stroke="black" d="M54.023,-104.206C61.7549,-105.753 70.6724,-107.537 80.0075,-109.404"/>
<polygon fill="black" stroke="black" points="79.3623,-112.844 89.8546,-111.374 80.7355,-105.98 79.3623,-112.844"/>
</g>
<!-- Document2 -->
<g id="node7" class="node"><title>Document2</title>
<polygon fill="none" stroke="black" points="232.287,-90 95.6464,-90 95.6464,-54 232.287,-54 232.287,-90"/>
<text text-anchor="middle" x="163.967" y="-69" font-family="Helvetica,sans-Serif" font-size="10.00">Document(path=&#39;part2.md&#39;)</text>
</g>
<!-- Root&#45;&gt;Document2 -->
<g id="edge6" class="edge"><title>Root&#45;&gt;Document2</title>
<path fill="none" stroke="black" d="M54.023,-93.7941C63.2654,-91.9452 74.2018,-89.7574 85.5206,-87.4931"/>
<polygon fill="black" stroke="black" points="86.4137,-90.8838 95.5328,-85.4901 85.0405,-84.0198 86.4137,-90.8838"/>
</g>
<!-- h1 -->
<g id="node5" class="node"><title>h1</title>
<polygon fill="none" stroke="black" points="327.934,-198 273.934,-198 273.934,-162 327.934,-162 327.934,-198"/>
<text text-anchor="middle" x="300.934" y="-177" font-family="Helvetica,sans-Serif" font-size="10.00">h1</text>
</g>
<!-- Document&#45;&gt;h1 -->
<g id="edge2" class="edge"><title>Document&#45;&gt;h1</title>
<path fill="none" stroke="black" d="M210.284,-144.131C227.953,-151.201 247.902,-159.182 264.488,-165.818"/>
<polygon fill="black" stroke="black" points="263.239,-169.088 273.823,-169.553 265.839,-162.589 263.239,-169.088"/>
</g>
<!-- p -->
<g id="node6" class="node"><title>p</title>
<polygon fill="none" stroke="black" points="327.934,-144 273.934,-144 273.934,-108 327.934,-108 327.934,-144"/>
<text text-anchor="middle" x="300.934" y="-123" font-family="Helvetica,sans-Serif" font-size="10.00">p</text>
</g>
<!-- Document&#45;&gt;p -->
<g id="edge4" class="edge"><title>Document&#45;&gt;p</title>
<path fill="none" stroke="black" d="M237.98,-126C246.877,-126 255.644,-126 263.659,-126"/>
<polygon fill="black" stroke="black" points="263.708,-129.5 273.708,-126 263.708,-122.5 263.708,-129.5"/>
</g>
<!-- TitleText -->
<g id="node3" class="node"><title>TitleText</title>
<polygon fill="none" stroke="black" points="467.917,-198 382.312,-198 382.312,-162 467.917,-162 467.917,-198"/>
<text text-anchor="middle" x="425.115" y="-177" font-family="Helvetica,sans-Serif" font-size="10.00">Text(text=&#39;Title&#39;)</text>
</g>
<!-- BodyText -->
<g id="node4" class="node"><title>BodyText</title>
<polygon fill="none" stroke="black" points="480.241,-144 369.989,-144 369.989,-108 480.241,-108 480.241,-144"/>
<text text-anchor="middle" x="425.115" y="-123" font-family="Helvetica,sans-Serif" font-size="10.00">Text(text=&#39;some text&#39;)</text>
</g>
<!-- h1&#45;&gt;TitleText -->
<g id="edge3" class="edge"><title>h1&#45;&gt;TitleText</title>
<path fill="none" stroke="black" d="M328.145,-180C340.906,-180 356.722,-180 371.807,-180"/>
<polygon fill="black" stroke="black" points="372.088,-183.5 382.088,-180 372.088,-176.5 372.088,-183.5"/>
</g>
<!-- p&#45;&gt;BodyText -->
<g id="edge5" class="edge"><title>p&#45;&gt;BodyText</title>
<path fill="none" stroke="black" d="M328.145,-126C337.486,-126 348.463,-126 359.593,-126"/>
<polygon fill="black" stroke="black" points="359.814,-129.5 369.814,-126 359.814,-122.5 359.814,-129.5"/>
</g>
<!-- h1b -->
<g id="node8" class="node"><title>h1b</title>
<polygon fill="none" stroke="black" points="327.934,-90 273.934,-90 273.934,-54 327.934,-54 327.934,-90"/>
<text text-anchor="middle" x="300.934" y="-69" font-family="Helvetica,sans-Serif" font-size="10.00">h1</text>
</g>
<!-- Document2&#45;&gt;h1b -->
<g id="edge7" class="edge"><title>Document2&#45;&gt;h1b</title>
<path fill="none" stroke="black" d="M232.45,-72C243.291,-72 254.132,-72 263.854,-72"/>
<polygon fill="black" stroke="black" points="263.911,-75.5001 273.911,-72 263.911,-68.5001 263.911,-75.5001"/>
</g>
<!-- p2 -->
<g id="node10" class="node"><title>p2</title>
<polygon fill="none" stroke="black" points="327.934,-36 273.934,-36 273.934,-0 327.934,-0 327.934,-36"/>
<text text-anchor="middle" x="300.934" y="-15" font-family="Helvetica,sans-Serif" font-size="10.00">p</text>
</g>
<!-- Document2&#45;&gt;p2 -->
<g id="edge9" class="edge"><title>Document2&#45;&gt;p2</title>
<path fill="none" stroke="black" d="M210.284,-53.8686C227.953,-46.7994 247.902,-38.8178 264.488,-32.1815"/>
<polygon fill="black" stroke="black" points="265.839,-35.4111 273.823,-28.4467 263.239,-28.9119 265.839,-35.4111"/>
</g>
<!-- TitleText2 -->
<g id="node9" class="node"><title>TitleText2</title>
<polygon fill="none" stroke="black" points="472.072,-90 378.158,-90 378.158,-54 472.072,-54 472.072,-90"/>
<text text-anchor="middle" x="425.115" y="-69" font-family="Helvetica,sans-Serif" font-size="10.00">Text(text=&#39;Part 2&#39;)</text>
</g>
<!-- h1b&#45;&gt;TitleText2 -->
<g id="edge8" class="edge"><title>h1b&#45;&gt;TitleText2</title>
<path fill="none" stroke="black" d="M328.145,-72C339.881,-72 354.2,-72 368.158,-72"/>
<polygon fill="black" stroke="black" points="368.217,-75.5001 378.217,-72 368.217,-68.5001 368.217,-75.5001"/>
</g>
<!-- BodyText2 -->
<g id="node11" class="node"><title>BodyText2</title>
<polygon fill="none" stroke="black" points="486.478,-36 363.752,-36 363.752,-0 486.478,-0 486.478,-36"/>
<text text-anchor="middle" x="425.115" y="-15" font-family="Helvetica,sans-Serif" font-size="10.00">Text(text=&#39;text of part 2&#39;)</text>
</g>
<!-- p2&#45;&gt;BodyText2 -->
<g id="edge10" class="edge"><title>p2&#45;&gt;BodyText2</title>
<path fill="none" stroke="black" d="M328.145,-18C335.786,-18 344.523,-18 353.543,-18"/>
<polygon fill="black" stroke="black" points="353.803,-21.5001 363.803,-18 353.803,-14.5001 353.803,-21.5001"/>
</g>
</g>
</svg>
