<?xml version="1.0" encoding="UTF-8" standalone="no"?>
<!DOCTYPE svg PUBLIC "-//W3C//DTD SVG 1.1//EN"
 "http://www.w3.org/Graphics/SVG/1.1/DTD/svg11.dtd">
<!-- Generated by graphviz version 2.38.0 (20140413.2041)
 -->
<!-- Title: %3 Pages: 1 -->
<svg width="274pt" height="130pt"
 viewBox="0.00 0.00 274.00 130.00" xmlns="http://www.w3.org/2000/svg" xmlns:xlink="http://www.w3.org/1999/xlink">
<g id="graph0" class="graph" transform="scale(1 1) rotate(0) translate(4 126)">
<title>%3</title>
<polygon fill="white" stroke="none" points="-4,4 -4,-126 270,-126 270,4 -4,4"/>
<g id="clust1" class="cluster"><title>cluster0</title>
<polygon fill="none" stroke="black" points="8,-8 8,-114 258,-114 258,-8 8,-8"/>
</g>
<!-- A -->
<g id="node1" class="node"><title>A</title>
<polygon fill="none" stroke="black" points="70,-79 16,-79 16,-43 70,-43 70,-79"/>
<text text-anchor="middle" x="43" y="-58" font-family="Helvetica,sans-Serif" font-size="10.00">A</text>
</g>
<!-- C -->
<g id="node2" class="node"><title>C</title>
<polygon fill="none" stroke="black" points="160,-79 106,-79 106,-43 160,-43 160,-79"/>
<text text-anchor="middle" x="133" y="-58" font-family="Helvetica,sans-Serif" font-size="10.00">C</text>
</g>
<!-- A&#45;&gt;C -->
<g id="edge1" class="edge"><title>A&#45;&gt;C</title>
<path fill="none" stroke="black" d="M70.4029,-61C78.3932,-61 87.3106,-61 95.8241,-61"/>
<polygon fill="black" stroke="black" points="95.919,-64.5001 105.919,-61 95.919,-57.5001 95.919,-64.5001"/>
</g>
<!-- D -->
<g id="node3" class="node"><title>D</title>
<polygon fill="none" stroke="black" points="250,-52 196,-52 196,-16 250,-16 250,-52"/>
<text text-anchor="middle" x="223" y="-31" font-family="Helvetica,sans-Serif" font-size="10.00">D</text>
</g>
<!-- C&#45;&gt;D -->
<g id="edge2" class="edge"><title>C&#45;&gt;D</title>
<path fill="none" stroke="black" d="M160.403,-52.8991C168.481,-50.4206 177.507,-47.6514 186.105,-45.0134"/>
<polygon fill="black" stroke="black" points="187.386,-48.2815 195.919,-42.0021 185.332,-41.5894 187.386,-48.2815"/>
</g>
<!-- E -->
<g id="node4" class="node"><title>E</title>
<polygon fill="none" stroke="black" points="250,-106 196,-106 196,-70 250,-70 250,-106"/>
<text text-anchor="middle" x="223" y="-85" font-family="Helvetica,sans-Serif" font-size="10.00">E</text>
</g>
<!-- C&#45;&gt;E -->
<g id="edge3" class="edge"><title>C&#45;&gt;E</title>
<path fill="none" stroke="black" d="M160.403,-69.1009C168.481,-71.5794 177.507,-74.3486 186.105,-76.9866"/>
<polygon fill="black" stroke="black" points="185.332,-80.4106 195.919,-79.9979 187.386,-73.7185 185.332,-80.4106"/>
</g>
</g>
</svg>
